<?xml version="1.0" encoding="utf-8"?>
<!-- Generator: Adobe Illustrator 16.0.0, SVG Export Plug-In . SVG Version: 6.00 Build 0)  -->
<!DOCTYPE svg PUBLIC "-//W3C//DTD SVG 1.1//EN" "http://www.w3.org/Graphics/SVG/1.1/DTD/svg11.dtd">
<svg version="1.1" id="圖層_1" xmlns="http://www.w3.org/2000/svg" xmlns:xlink="http://www.w3.org/1999/xlink" x="0px" y="0px"
	 width="20px" height="175px" viewBox="25 0 20 175" enable-background="new 25 0 20 175" xml:space="preserve">
<g>
	<g>
		<path fill="#A97C21" d="M33.511,84.119h-4.195v-1.775h11.462v3.463c0,1.297-0.3,2.291-0.899,2.982
			c-0.6,0.689-1.469,1.035-2.608,1.035c-1.149,0-2.073-0.412-2.771-1.236c-0.698-0.824-1.027-1.842-0.988-3.055V84.119z
			 M39.29,84.119h-4.299v1.273c0,1.711,0.734,2.566,2.205,2.566c1.396,0,2.094-0.82,2.094-2.463V84.119z"/>
		<path fill="#A97C21" d="M29.315,102.873v-1.953l2.982-1.072V95.26l-2.982-1.021v-1.953l11.462,4.32v1.977L29.315,102.873z
			 M33.77,99.352l4.521-1.6c0.163-0.059,0.451-0.117,0.865-0.176v-0.053c-0.34-0.045-0.624-0.105-0.851-0.186l-4.536-1.59V99.352z"
			/>
		<path fill="#A97C21" d="M30.093,116.139c-0.646-1.145-0.97-2.463-0.97-3.957c0-1.713,0.521-3.082,1.562-4.107
			s2.441-1.539,4.203-1.539c1.78,0,3.239,0.568,4.376,1.705c1.138,1.137,1.706,2.602,1.706,4.393c0,1.232-0.19,2.289-0.57,3.166
			h-1.82c0.558-0.902,0.837-1.996,0.837-3.277c0-1.209-0.407-2.197-1.222-2.967c-0.813-0.77-1.882-1.154-3.203-1.154
			c-1.362,0-2.424,0.354-3.186,1.061c-0.763,0.709-1.144,1.666-1.144,2.875c0,0.799,0.148,1.473,0.444,2.02h2.871v-2.434h1.509
			v4.217H30.093z"/>
		<path fill="#A97C21" d="M29.315,128.012v-6.348h11.462v6.09h-1.524v-4.314h-3.374v4.004h-1.517v-4.004H30.84v4.572H29.315z"/>
		<path fill="#A97C21" d="M39.253,147.156v-3.293h-9.938v-1.783h9.938v-3.285h1.524v8.361H39.253z"/>
		<path fill="#A97C21" d="M34.902,150.414c1.81,0,3.274,0.506,4.392,1.52s1.676,2.383,1.676,4.104c0,1.613-0.543,2.908-1.628,3.885
			s-2.477,1.465-4.174,1.465c-1.8,0-3.258-0.498-4.373-1.494c-1.114-0.996-1.672-2.344-1.672-4.041c0-1.617,0.538-2.928,1.613-3.932
			S33.2,150.414,34.902,150.414z M35.027,152.279c-1.263,0-2.302,0.322-3.118,0.969s-1.225,1.52-1.225,2.619
			c0,1.154,0.389,2.053,1.165,2.693c0.777,0.641,1.826,0.963,3.148,0.963c1.352,0,2.422-0.311,3.212-0.93
			c0.789-0.619,1.184-1.5,1.184-2.645c0-1.115-0.409-2.006-1.229-2.672C37.347,152.611,36.301,152.279,35.027,152.279z"/>
		<path fill="#A97C21" d="M33.511,168.324h-4.195v-1.775h11.462v3.463c0,1.297-0.3,2.291-0.899,2.982s-1.469,1.035-2.608,1.035
			c-1.149,0-2.073-0.41-2.771-1.234c-0.698-0.824-1.027-1.844-0.988-3.057V168.324z M39.29,168.324h-4.299v1.273
			c0,1.711,0.734,2.568,2.205,2.568c1.396,0,2.094-0.822,2.094-2.465V168.324z"/>
	</g>
	<line fill="none" stroke="#A97C21" stroke-width="0.75" stroke-miterlimit="10" x1="35" y1="68.637" x2="35" y2="8.547"/>
	<path fill="none" stroke="#A97C21" stroke-width="0.75" stroke-miterlimit="10" d="M35,0.97c5.151,0,9.343,4.19,9.343,9.343
		c0,5.151-4.191,9.343-9.343,9.343c-5.152,0-9.343-4.191-9.343-9.343C25.657,5.161,29.848,0.97,35,0.97z"/>
	<path fill="#FFFFFF" d="M33.234,10.313c0-0.976,0.79-1.766,1.766-1.766c0.974,0,1.766,0.79,1.766,1.766
		c0,0.975-0.792,1.766-1.766,1.766C34.024,12.079,33.234,11.288,33.234,10.313"/>
	<circle fill="none" stroke="#A97C21" stroke-miterlimit="10" cx="35" cy="10.313" r="1.766"/>
</g>
</svg>
